<svg version="1.1" id="Layer_1" xmlns="http://www.w3.org/2000/svg" xmlns:xlink="http://www.w3.org/1999/xlink" x="0px" y="0px"
	 width="100%" viewBox="0 0 1000 1000" enable-background="new 0 0 1000 1000" xml:space="preserve">
<path fill="#000000" opacity="1.000000" stroke="none" 
	d="
M681.000000,1001.000000 
	C454.000000,1001.000000 227.500000,1001.000000 1.000000,1001.000000 
	C1.000000,667.666687 1.000000,334.333344 1.000000,1.000000 
	C334.333344,1.000000 667.666687,1.000000 1001.000000,1.000000 
	C1001.000000,334.333344 1001.000000,667.666687 1001.000000,1001.000000 
	C894.500000,1001.000000 788.000000,1001.000000 681.000000,1001.000000 
M868.000000,712.500000 
	C868.000000,569.087646 868.000000,425.675232 868.000000,282.259644 
	C804.404297,282.259644 741.338928,282.259644 677.395996,282.259644 
	C677.395996,305.892242 677.395996,329.272095 677.395996,353.311096 
	C672.372559,348.888062 668.344238,345.009338 663.976868,341.559814 
	C652.259338,332.304688 640.727417,322.761200 628.511658,314.203125 
	C611.587891,302.346619 592.823669,293.862305 573.360840,287.035461 
	C555.852661,280.894226 537.958069,276.210632 519.481567,273.981934 
	C508.811981,272.694946 498.172913,270.457855 487.482574,270.199432 
	C470.417969,269.786987 453.312347,270.421631 436.243378,271.099274 
	C427.196991,271.458466 418.191193,272.841248 409.000519,273.778931 
	C409.000519,296.480286 408.577118,318.471252 409.236786,340.429657 
	C409.458984,347.825684 411.938171,355.299255 414.260895,362.453278 
	C417.877625,373.592957 424.093536,383.276733 431.591553,392.392487 
	C440.814911,403.605835 452.232941,411.631073 464.974152,417.900330 
	C480.191711,425.388031 496.844055,426.567749 513.393005,426.862976 
	C530.967834,427.176483 547.886902,430.344849 564.455139,435.864441 
	C587.960632,443.695190 608.678711,456.351288 626.614136,473.287933 
	C638.960144,484.946381 648.966919,498.556854 657.189636,513.518738 
	C670.805725,538.294250 676.906982,565.000854 677.851196,592.956604 
	C678.142822,601.591064 676.694336,610.287415 675.996521,618.951660 
	C674.636353,635.838684 669.831116,651.876831 662.887329,667.169250 
	C651.614319,691.996155 635.544617,713.230225 613.671265,729.838440 
	C594.719177,744.228516 573.724487,754.294067 550.626221,760.009888 
	C534.792297,763.928223 518.702637,764.760071 502.447723,765.281494 
	C492.566315,765.598389 482.424988,767.633606 473.015778,770.753052 
	C454.870361,776.768677 440.009766,787.966797 428.279816,803.200867 
	C417.502686,817.197510 410.297699,833.054993 409.312317,850.479004 
	C408.035522,873.056152 409.000702,895.760071 409.000702,919.177368 
	C420.367401,920.459656 431.614288,922.656555 442.888641,922.807861 
	C466.656281,923.126953 490.538818,924.435852 514.121216,919.967468 
	C529.012024,917.145996 544.012695,914.656738 558.657776,910.842468 
	C583.362671,904.408264 606.339783,893.745422 627.896179,880.026245 
	C644.217407,869.638855 659.044250,857.435120 672.746582,843.814209 
	C674.015991,842.552368 675.602783,841.609619 678.084717,839.728516 
	C678.084717,864.411438 678.084717,887.613525 678.084717,910.705261 
	C741.666138,910.705261 804.731689,910.705261 868.000000,910.705261 
	C868.000000,844.773804 868.000000,779.136902 868.000000,712.500000 
M158.000000,510.500000 
	C158.000000,643.925964 158.000000,777.351929 158.000000,910.711792 
	C215.975388,910.711792 273.379700,910.711792 331.000000,910.711792 
	C331.000000,908.613525 331.000000,906.801758 331.000000,904.989929 
	C331.000000,759.160278 330.992004,613.330688 331.012451,467.501038 
	C331.014496,453.013336 330.725067,438.615692 328.150818,424.238922 
	C325.579865,409.880341 321.441925,396.119019 315.404755,382.932007 
	C303.370972,356.646362 285.671326,334.812866 262.726807,317.262054 
	C249.618500,307.235229 235.342972,299.237701 219.880997,293.412170 
	C206.094040,288.217743 191.816742,284.935089 177.240585,283.081482 
	C170.965683,282.283539 164.582535,282.336823 158.000000,281.990295 
	C158.000000,358.214966 158.000000,433.857483 158.000000,510.500000 
M445.543274,678.000854 
	C460.312134,683.095459 475.572998,683.580322 490.573914,680.549744 
	C511.810272,676.259399 529.550903,665.562561 543.257263,648.350586 
	C555.120911,633.452515 561.474426,616.457886 562.861450,597.747986 
	C563.942139,583.169250 561.310608,569.100647 555.318054,555.471680 
	C547.065308,536.702209 534.190613,522.458740 516.314270,512.850586 
	C500.395172,504.294434 481.939575,500.408630 468.581848,487.149506 
	C454.695435,473.365570 439.934052,460.286163 427.431305,445.330353 
	C412.051147,426.932587 398.777771,406.775269 387.815979,385.321869 
	C377.959686,366.032135 367.761780,346.847046 359.254150,326.957245 
	C350.309174,306.045044 342.922791,284.421326 338.552277,261.971649 
	C336.419128,251.014526 334.295654,240.005234 333.173340,228.917770 
	C332.304932,220.338440 332.620270,211.578644 333.125153,202.940918 
	C333.500916,196.511948 334.144897,189.850098 336.206635,183.817337 
	C341.306000,168.896515 342.233002,153.825333 339.994415,138.408005 
	C336.246918,112.598366 323.094543,92.569176 301.726440,78.080673 
	C290.610504,70.543587 278.380981,65.426994 264.705322,63.839893 
	C249.553192,62.081436 234.817841,62.612576 220.373077,67.936836 
	C203.371704,74.203445 189.434662,84.485214 178.526230,98.948792 
	C168.473389,112.277946 162.609543,127.364105 161.133423,143.835693 
	C159.459885,162.509811 162.513489,180.562866 172.042053,197.024597 
	C182.804855,215.618607 197.735428,229.708908 218.235214,236.959671 
	C236.718079,243.497055 252.988159,253.574051 266.643188,267.389893 
	C278.293854,279.177795 289.173584,291.772308 299.850647,304.467255 
	C316.116394,323.807129 328.923920,345.547546 340.808655,367.700806 
	C356.910309,397.714447 370.786804,428.848297 379.753387,461.785095 
	C384.613708,479.638367 388.566681,497.938293 390.622162,516.295044 
	C392.410645,532.267639 391.550049,548.517151 386.483765,564.384521 
	C381.906799,578.719482 380.802826,593.487305 383.805695,608.689453 
	C387.336182,626.562378 395.248871,641.846741 407.532623,654.928711 
	C417.807159,665.870850 430.636169,673.006836 445.543274,678.000854 
z"/>
<path fill="#FFFFFF" opacity="1.000000" stroke="none" 
	d="
M868.000000,713.000000 
	C868.000000,779.136902 868.000000,844.773804 868.000000,910.705261 
	C804.731689,910.705261 741.666138,910.705261 678.084717,910.705261 
	C678.084717,887.613525 678.084717,864.411438 678.084717,839.728516 
	C675.602783,841.609619 674.015991,842.552368 672.746582,843.814209 
	C659.044250,857.435120 644.217407,869.638855 627.896179,880.026245 
	C606.339783,893.745422 583.362671,904.408264 558.657776,910.842468 
	C544.012695,914.656738 529.012024,917.145996 514.121216,919.967468 
	C490.538818,924.435852 466.656281,923.126953 442.888641,922.807861 
	C431.614288,922.656555 420.367401,920.459656 409.000702,919.177368 
	C409.000702,895.760071 408.035522,873.056152 409.312317,850.479004 
	C410.297699,833.054993 417.502686,817.197510 428.279816,803.200867 
	C440.009766,787.966797 454.870361,776.768677 473.015778,770.753052 
	C482.424988,767.633606 492.566315,765.598389 502.447723,765.281494 
	C518.702637,764.760071 534.792297,763.928223 550.626221,760.009888 
	C573.724487,754.294067 594.719177,744.228516 613.671265,729.838440 
	C635.544617,713.230225 651.614319,691.996155 662.887329,667.169250 
	C669.831116,651.876831 674.636353,635.838684 675.996521,618.951660 
	C676.694336,610.287415 678.142822,601.591064 677.851196,592.956604 
	C676.906982,565.000854 670.805725,538.294250 657.189636,513.518738 
	C648.966919,498.556854 638.960144,484.946381 626.614136,473.287933 
	C608.678711,456.351288 587.960632,443.695190 564.455139,435.864441 
	C547.886902,430.344849 530.967834,427.176483 513.393005,426.862976 
	C496.844055,426.567749 480.191711,425.388031 464.974152,417.900330 
	C452.232941,411.631073 440.814911,403.605835 431.591553,392.392487 
	C424.093536,383.276733 417.877625,373.592957 414.260895,362.453278 
	C411.938171,355.299255 409.458984,347.825684 409.236786,340.429657 
	C408.577118,318.471252 409.000519,296.480286 409.000519,273.778931 
	C418.191193,272.841248 427.196991,271.458466 436.243378,271.099274 
	C453.312347,270.421631 470.417969,269.786987 487.482574,270.199432 
	C498.172913,270.457855 508.811981,272.694946 519.481567,273.981934 
	C537.958069,276.210632 555.852661,280.894226 573.360840,287.035461 
	C592.823669,293.862305 611.587891,302.346619 628.511658,314.203125 
	C640.727417,322.761200 652.259338,332.304688 663.976868,341.559814 
	C668.344238,345.009338 672.372559,348.888062 677.395996,353.311096 
	C677.395996,329.272095 677.395996,305.892242 677.395996,282.259644 
	C741.338928,282.259644 804.404297,282.259644 868.000000,282.259644 
	C868.000000,425.675232 868.000000,569.087646 868.000000,713.000000 
z"/>
<path fill="#FFFFFF" opacity="1.000000" stroke="none" 
	d="
M158.000000,510.000000 
	C158.000000,433.857483 158.000000,358.214966 158.000000,281.990295 
	C164.582535,282.336823 170.965683,282.283539 177.240585,283.081482 
	C191.816742,284.935089 206.094040,288.217743 219.880997,293.412170 
	C235.342972,299.237701 249.618500,307.235229 262.726807,317.262054 
	C285.671326,334.812866 303.370972,356.646362 315.404755,382.932007 
	C321.441925,396.119019 325.579865,409.880341 328.150818,424.238922 
	C330.725067,438.615692 331.014496,453.013336 331.012451,467.501038 
	C330.992004,613.330688 331.000000,759.160278 331.000000,904.989929 
	C331.000000,906.801758 331.000000,908.613525 331.000000,910.711792 
	C273.379700,910.711792 215.975388,910.711792 158.000000,910.711792 
	C158.000000,777.351929 158.000000,643.925964 158.000000,510.000000 
z"/>
<path fill="#FFFFFF" opacity="1.000000" stroke="none" 
	d="
M445.130432,677.983582 
	C430.636169,673.006836 417.807159,665.870850 407.532623,654.928711 
	C395.248871,641.846741 387.336182,626.562378 383.805695,608.689453 
	C380.802826,593.487305 381.906799,578.719482 386.483765,564.384521 
	C391.550049,548.517151 392.410645,532.267639 390.622162,516.295044 
	C388.566681,497.938293 384.613708,479.638367 379.753387,461.785095 
	C370.786804,428.848297 356.910309,397.714447 340.808655,367.700806 
	C328.923920,345.547546 316.116394,323.807129 299.850647,304.467255 
	C289.173584,291.772308 278.293854,279.177795 266.643188,267.389893 
	C252.988159,253.574051 236.718079,243.497055 218.235214,236.959671 
	C197.735428,229.708908 182.804855,215.618607 172.042053,197.024597 
	C162.513489,180.562866 159.459885,162.509811 161.133423,143.835693 
	C162.609543,127.364105 168.473389,112.277946 178.526230,98.948792 
	C189.434662,84.485214 203.371704,74.203445 220.373077,67.936836 
	C234.817841,62.612576 249.553192,62.081436 264.705322,63.839893 
	C278.380981,65.426994 290.610504,70.543587 301.726440,78.080673 
	C323.094543,92.569176 336.246918,112.598366 339.994415,138.408005 
	C342.233002,153.825333 341.306000,168.896515 336.206635,183.817337 
	C334.144897,189.850098 333.500916,196.511948 333.125153,202.940918 
	C332.620270,211.578644 332.304932,220.338440 333.173340,228.917770 
	C334.295654,240.005234 336.419128,251.014526 338.552277,261.971649 
	C342.922791,284.421326 350.309174,306.045044 359.254150,326.957245 
	C367.761780,346.847046 377.959686,366.032135 387.815979,385.321869 
	C398.777771,406.775269 412.051147,426.932587 427.431305,445.330353 
	C439.934052,460.286163 454.695435,473.365570 468.581848,487.149506 
	C481.939575,500.408630 500.395172,504.294434 516.314270,512.850586 
	C534.190613,522.458740 547.065308,536.702209 555.318054,555.471680 
	C561.310608,569.100647 563.942139,583.169250 562.861450,597.747986 
	C561.474426,616.457886 555.120911,633.452515 543.257263,648.350586 
	C529.550903,665.562561 511.810272,676.259399 490.573914,680.549744 
	C475.572998,683.580322 460.312134,683.095459 445.130432,677.983582 
z"/>
</svg>